<?xml version="1.0" encoding="UTF-8" standalone="no"?>
<svg
   xmlns:dc="http://purl.org/dc/elements/1.1/"
   xmlns:cc="http://creativecommons.org/ns#"
   xmlns:rdf="http://www.w3.org/1999/02/22-rdf-syntax-ns#"
   xmlns:svg="http://www.w3.org/2000/svg"
   xmlns="http://www.w3.org/2000/svg"
   xmlns:sodipodi="http://sodipodi.sourceforge.net/DTD/sodipodi-0.dtd"
   xmlns:inkscape="http://www.inkscape.org/namespaces/inkscape"
   version="1.1"
   id="svg2497"
   height="300"
   width="300"
   sodipodi:docname="favicon.svg"
   inkscape:version="0.92.3 (2405546, 2018-03-11)">
  <sodipodi:namedview
     pagecolor="#ffffff"
     bordercolor="#666666"
     borderopacity="1"
     objecttolerance="10"
     gridtolerance="10"
     guidetolerance="10"
     inkscape:pageopacity="0"
     inkscape:pageshadow="2"
     inkscape:window-width="1853"
     inkscape:window-height="1025"
     id="namedview14"
     showgrid="false"
     units="px"
     inkscape:zoom="1.4142136"
     inkscape:cx="80.705799"
     inkscape:cy="51.64277"
     inkscape:window-x="3907"
     inkscape:window-y="1107"
     inkscape:window-maximized="1"
     inkscape:current-layer="svg2497" />
  <defs
     id="defs3" />
  <metadata
     id="metadata4">
    <rdf:RDF>
      <cc:Work
         rdf:about="">
        <dc:format>image/svg+xml</dc:format>
        <dc:type
           rdf:resource="http://purl.org/dc/dcmitype/StillImage" />
        <dc:title></dc:title>
      </cc:Work>
    </rdf:RDF>
  </metadata>
  <path
     inkscape:connector-curvature="0"
     class="fil0"
     d="M 48.146441,26.48959 H 256.14794 V 174.7278 C 255.89709,236.5425 192.59177,287.7921 150.8242,298.69208 109.0118,288.8722 47.935386,240.74531 47.793393,172.41262 Z"
     id="path79"
     style="fill:#0566b5;fill-opacity:1;fill-rule:evenodd;stroke:#0566b5;stroke-width:2.53918958;stroke-opacity:1" />
  <rect
     class="fil2"
     x="47.977047"
     y="1.2676593"
     width="208.31606"
     height="58.824139"
     id="rect87"
     style="fill:#ff0000;fill-opacity:1;fill-rule:evenodd;stroke:#ff0000;stroke-width:2.53529215;stroke-miterlimit:4;stroke-dasharray:none;stroke-opacity:1" />
  <path
     inkscape:connector-curvature="0"
     class="fil2"
     d="M 47.777904,134.51781 C 83.343012,122.13299 101.6254,108.96376 125.30614,78.90087 l 4.41334,26.99725 c 17.64876,-10.56052 22.75311,-17.32416 27.47931,-44.19243 41.63438,10.51823 86.88637,35.53245 99.03918,73.2548 l 0.0302,-119.02653 -208.260303,-0.0172 -0.229925,118.60102 z"
     id="path89"
     style="fill:#ff0000;fill-opacity:1;fill-rule:evenodd;stroke:#ff0000;stroke-width:2.53738356;stroke-linecap:butt;stroke-linejoin:miter;stroke-miterlimit:10;stroke-dasharray:none;stroke-opacity:1" />
  <polygon
     transform="matrix(4.1880226,0,0,4.1880226,-459.74345,-145.99216)"
     class="fil1"
     points="143.576,69.6419 135.039,69.6419 136.533,71.6696 135.145,73.9107 143.683,73.9107 143.576,85.2232 134.932,85.2232 136.533,87.3576 135.039,89.492 143.683,89.5987 143.576,98.7768 145.711,97.1759 147.845,98.7403 147.845,89.5987 156.196,89.6388 154.889,87.3576 156.156,85.2588 147.845,85.2588 147.845,73.9107 156.548,73.9107 154.995,71.7763 156.596,69.5351 147.845,69.5351 147.874,61.434 145.711,63.1319 143.571,61.4412 "
     id="polygon81"
     style="fill:#fcf205;fill-opacity:1;fill-rule:evenodd" />
  <polygon
     transform="matrix(4.1880226,0,0,4.1880226,-459.74345,-145.99216)"
     class="fil1"
     points="141.517,77.9756 139.645,77.9756 138.537,76.1287 137.453,78.0003 135.557,77.9756 136.862,79.6502 135.582,81.2509 137.503,81.2755 138.512,83.1225 139.62,81.2509 141.492,81.2263 140.162,79.6502 "
     id="polygon83"
     style="fill:#fcf205;fill-opacity:1;fill-rule:evenodd" />
  <path
     inkscape:connector-curvature="0"
     class="fil1"
     d="m 164.43947,190.91917 c 1.56421,-9.26474 6.75988,-13.22326 14.65973,-13.29278 7.97064,0.018 13.00087,4.78566 14.63045,13.24964 -9.46996,-7.10873 -19.22552,-7.44713 -29.29018,0.0431 z"
     id="path85"
     style="fill:#fcf205;fill-opacity:1;fill-rule:evenodd;stroke-width:0.32594723" />
  <rect
     style="opacity:1;fill:#ff0000;fill-opacity:1;fill-rule:evenodd;stroke:#ff0000;stroke-width:2.72048235;stroke-linecap:round;stroke-linejoin:miter;stroke-miterlimit:4;stroke-dasharray:none;stroke-dashoffset:0;stroke-opacity:1"
     id="rect3282"
     width="203.05042"
     height="10.076584"
     x="50.605846"
     y="11.702596" />
  <text
     x="54.227436"
     y="36.299885"
     class="fil3 str1 fnt0"
     id="text91"
     style="font-weight:normal;font-size:31.02612686px;line-height:0%;font-family:Arial;fill:#fcf205;fill-opacity:1;fill-rule:evenodd;stroke:#fcf205;stroke-width:0.31910232;stroke-miterlimit:4;stroke-dasharray:none;stroke-opacity:1">KST ŽOCHÁR</text>
</svg>
