<?xml version="1.0" encoding="UTF-8" standalone="no"?>
<!-- Created with Inkscape (http://www.inkscape.org/) -->

<svg
   xmlns:dc="http://purl.org/dc/elements/1.1/"
   xmlns:cc="http://creativecommons.org/ns#"
   xmlns:rdf="http://www.w3.org/1999/02/22-rdf-syntax-ns#"
   xmlns:svg="http://www.w3.org/2000/svg"
   xmlns="http://www.w3.org/2000/svg"
   xmlns:sodipodi="http://sodipodi.sourceforge.net/DTD/sodipodi-0.dtd"
   xmlns:inkscape="http://www.inkscape.org/namespaces/inkscape"
   width="102.53471mm"
   height="82.038643mm"
   viewBox="0 0 363.31195 290.6881"
   id="svg4335"
   version="1.1"
   inkscape:version="0.91 r13725"
   sodipodi:docname="logo_kst-zochar_turista_clear.svg">
  <defs
     id="defs4337" />
  <sodipodi:namedview
     id="base"
     pagecolor="#ffffff"
     bordercolor="#666666"
     borderopacity="1.0"
     inkscape:pageopacity="0.0"
     inkscape:pageshadow="2"
     inkscape:zoom="0.49497475"
     inkscape:cx="-222.08427"
     inkscape:cy="-107.74407"
     inkscape:document-units="px"
     inkscape:current-layer="layer1"
     showgrid="false"
     inkscape:window-width="1855"
     inkscape:window-height="1056"
     inkscape:window-x="65"
     inkscape:window-y="24"
     inkscape:window-maximized="1"
     fit-margin-top="0"
     fit-margin-left="0"
     fit-margin-right="0"
     fit-margin-bottom="0" />
  <metadata
     id="metadata4340">
    <rdf:RDF>
      <cc:Work
         rdf:about="">
        <dc:format>image/svg+xml</dc:format>
        <dc:type
           rdf:resource="http://purl.org/dc/dcmitype/StillImage" />
        <dc:title></dc:title>
      </cc:Work>
    </rdf:RDF>
  </metadata>
  <g
     inkscape:label="Layer 1"
     inkscape:groupmode="layer"
     id="layer1"
     transform="translate(-55.486875,-87.018158)">
    <path
       style="fill:#000000;fill-rule:evenodd;stroke:#000000;stroke-width:1px;stroke-linecap:round;stroke-linejoin:round;stroke-opacity:1"
       d="m 177.17512,307.50911 241.08726,-75.5522 0,-45.4569 c 1.384,-43.08888 -36.83329,-59.7573 -85.29661,-12.44834 l -103.75728,96.25504 c -22.79558,21.32 -31.86438,27.7721 -52.03337,37.2024 z"
       id="path4182-3"
       inkscape:connector-curvature="0"
       sodipodi:nodetypes="cccccc" />
    <path
       style="fill:#000000;fill-rule:evenodd;stroke:#000000;stroke-width:1px;stroke-linecap:round;stroke-linejoin:round;stroke-opacity:1"
       d="M 80.272566,219.15181 119.37972,133.97323 C 74.473056,129.23808 78.112486,182.86209 80.272566,219.15181 Z"
       id="path4184-6"
       inkscape:connector-curvature="0"
       sodipodi:nodetypes="ccc" />
    <path
       style="fill:#000000;fill-rule:evenodd;stroke:#000000;stroke-width:1px;stroke-linecap:round;stroke-linejoin:round;stroke-opacity:1"
       d="m 177.97993,135.6969 c -3.41187,10.54015 -11.57177,29.32008 -22.61806,22.11562 l -22.14286,-15.98215 c -4.40378,-2.24345 -8.77298,-1.95493 -12.67858,3.39286 L 92.734506,206.6043 c 5.37698,-5.51949 13.617714,-11.42202 20.573784,-14.32751 7.0889,-2.86682 9.80593,1.71464 3.03571,5.08929 -19.170364,11.61459 -24.545264,20.42213 -29.821434,33.77913 18.137074,-22.96685 37.552864,-30.46394 51.250014,-21.27913 l 5.71429,-23.66071 -17.50001,-14.19642 c -2.60559,-1.90051 -0.87414,-6.40018 1.87501,-4.01786 l 17.76786,14.375 c 3.5686,2.48577 8.18736,1.91891 10.80356,-1.25 l 30.625,-40.53572 c 3.4125,-5.31154 -7.10084,-10.41852 -9.07836,-4.88347 z"
       id="path4186-4"
       inkscape:connector-curvature="0"
       sodipodi:nodetypes="cccccccccccccccc" />
    <path
       style="fill:#000000;fill-rule:evenodd;stroke:#000000;stroke-width:1px;stroke-linecap:butt;stroke-linejoin:miter;stroke-opacity:1"
       d="m 127.46473,134.35088 c 7.44668,0.74136 11.14941,3.59615 16.26442,7.12074 3.95462,-4.59431 8.10493,-11.17372 9.13361,-15.35515 1.1701,-8.99067 2.39201,-14.0372 -5.35343,-13.42414 -5.30855,0.41053 -4.77117,0.27078 -10.31817,1.26424 -8.55171,1.8488 -9.52775,11.83858 -9.72643,20.39431 z"
       id="path4207-0"
       inkscape:connector-curvature="0"
       sodipodi:nodetypes="cccccc" />
    <path
       style="fill:#000000;fill-rule:evenodd;stroke:#000000;stroke-width:1px;stroke-linecap:round;stroke-linejoin:round;stroke-opacity:1"
       d="m 129.16224,221.44061 6.25744,130.9769 -28.10571,-0.1352 0.11204,-66.8666 z"
       id="path4209-3"
       inkscape:connector-curvature="0"
       sodipodi:nodetypes="ccccc" />
    <path
       style="fill:#000000;fill-rule:evenodd;stroke:#000000;stroke-width:1px;stroke-linecap:round;stroke-linejoin:round;stroke-opacity:1"
       d="m 89.201146,358.97321 14.821424,-71.7857 23.2143,-68.9286 c 3.31998,-9.33878 -3.78042,-8.03345 -9.91072,-5.98211 -10.45039,4.57741 -17.588414,7.33761 -23.839294,23.30351 l -37.499999,123.5715 z"
       id="path4213-5"
       inkscape:connector-curvature="0"
       sodipodi:nodetypes="ccccccc" />
    <path
       style="fill:#000000;fill-rule:evenodd;stroke:#000000;stroke-width:1px;stroke-linecap:round;stroke-linejoin:round;stroke-opacity:1"
       d="m 57.428117,365.55871 13.112319,-0.068 c -1.47608,5.3148 2.187,7.8437 9.50892,7.6786 2.8558,-0.1692 2.75677,3.6589 0.58036,3.8392 -8.84947,1.0182 -18.264349,-1.7077 -23.201599,-11.4502 z"
       id="path4215-8"
       inkscape:connector-curvature="0"
       sodipodi:nodetypes="ccccc" />
    <path
       style="fill:#000000;fill-rule:evenodd;stroke:#000000;stroke-width:1px;stroke-linecap:round;stroke-linejoin:round;stroke-opacity:1"
       d="m 140.98687,315.75891 -0.53571,-15.3571 19.10713,-109.91073 3.21428,-0.0568 z"
       id="path4217-5"
       inkscape:connector-curvature="0"
       sodipodi:nodetypes="ccccc" />
    <path
       style="fill:#000000;fill-rule:evenodd;stroke:#000000;stroke-width:1px;stroke-linecap:round;stroke-linejoin:round;stroke-opacity:1"
       d="m 161.23228,182.21444 1.02624,0.78639 c 2.46338,1.33181 3.61948,1.43802 5.14082,-2.33411 l 5.51033,-13.45939 z"
       id="path4219-0"
       inkscape:connector-curvature="0"
       sodipodi:nodetypes="ccccc" />
    <circle
       style="opacity:1;fill:#000000;fill-opacity:1;stroke:#000000;stroke-width:1;stroke-linecap:round;stroke-linejoin:round;stroke-miterlimit:4;stroke-dasharray:none;stroke-dashoffset:0;stroke-opacity:1"
       id="path4223-9"
       cx="279.55826"
       cy="122.72322"
       r="35.205063" />
    <path
       style="fill:#000000;fill-rule:evenodd;stroke:#000000;stroke-width:1px;stroke-linecap:round;stroke-linejoin:round;stroke-opacity:1"
       d="m 117.14757,357.15181 c -3.48331,2.7083 -2.98817,6.4195 0.0893,9.4643 4.97587,-0.065 11.70652,-0.01 19.00481,0.054 0.78943,0.01 4.25557,-4.4486 -0.5905,-4.4741 -2.34592,-0.012 -9.37108,-0.058 -9.37108,-0.058 -2.87423,-0.09 -2.4319,-4.3386 -2.0158,-5.045 -7.11673,0.059 -5.09534,0.028 -7.11673,0.059 z"
       id="path4225-9"
       inkscape:connector-curvature="0"
       sodipodi:nodetypes="ccssscc" />
  </g>
</svg>
