<?xml version="1.0" encoding="UTF-8" standalone="no"?>
<!-- Created with Inkscape (http://www.inkscape.org/) -->

<svg
   xmlns:dc="http://purl.org/dc/elements/1.1/"
   xmlns:cc="http://creativecommons.org/ns#"
   xmlns:rdf="http://www.w3.org/1999/02/22-rdf-syntax-ns#"
   xmlns:svg="http://www.w3.org/2000/svg"
   xmlns="http://www.w3.org/2000/svg"
   xmlns:sodipodi="http://sodipodi.sourceforge.net/DTD/sodipodi-0.dtd"
   xmlns:inkscape="http://www.inkscape.org/namespaces/inkscape"
   width="182.74251mm"
   height="259.75574mm"
   id="svg2497"
   sodipodi:version="0.32"
   inkscape:version="0.91 r13725"
   sodipodi:docname="zochar-logo_color_A4_01.svg"
   inkscape:output_extension="org.inkscape.output.svg.inkscape"
   inkscape:export-filename="c:\Documents and Settings\Administrator\Desktop\zochar-logo_color_A4_01.png"
   inkscape:export-xdpi="90"
   inkscape:export-ydpi="90"
   version="1.1">
  <defs
     id="defs3">
    <inkscape:perspective
       sodipodi:type="inkscape:persp3d"
       inkscape:vp_x="0 : 526.18109 : 1"
       inkscape:vp_y="0 : 1000 : 0"
       inkscape:vp_z="744.09448 : 526.18109 : 1"
       inkscape:persp3d-origin="372.04724 : 350.78739 : 1"
       id="perspective2503" />
  </defs>
  <sodipodi:namedview
     inkscape:document-units="mm"
     id="base"
     pagecolor="#ffffff"
     bordercolor="#666666"
     borderopacity="1.0"
     inkscape:pageopacity="0.0"
     inkscape:pageshadow="2"
     inkscape:zoom="0.98994949"
     inkscape:cx="64.249222"
     inkscape:cy="490.65399"
     inkscape:current-layer="layer1"
     showgrid="false"
     inkscape:window-width="1855"
     inkscape:window-height="1176"
     inkscape:window-x="1985"
     inkscape:window-y="24"
     inkscape:window-maximized="1"
     fit-margin-top="0"
     fit-margin-left="0"
     fit-margin-right="0"
     fit-margin-bottom="0" />
  <metadata
     id="metadata4">
    <rdf:RDF>
      <cc:Work
         rdf:about="">
        <dc:format>image/svg+xml</dc:format>
        <dc:type
           rdf:resource="http://purl.org/dc/dcmitype/StillImage" />
        <dc:title />
      </cc:Work>
    </rdf:RDF>
  </metadata>
  <g
     inkscape:label="Layer 1"
     inkscape:groupmode="layer"
     id="layer1"
     transform="translate(-54.666659,-65.182243)">
    <path
       style="fill:#0566b5;fill-opacity:1;fill-rule:evenodd;stroke:#0566b5;stroke-width:7.79018593;stroke-opacity:1"
       d="M 5.0332031 81.269531 L 3.9511719 528.95898 C 4.3868049 738.6024 191.76718 886.25365 320.04688 916.38086 C 448.18896 882.93993 642.40814 725.70883 643.17773 536.0625 L 643.17773 81.269531 L 5.0332031 81.269531 z M 351.07031 329.23633 L 350.6875 435.97461 L 465.99023 435.97461 L 444.89453 465.50586 L 465.35742 493.62695 L 350.6875 493.62695 L 350.6875 643.14844 L 460.19141 643.14844 L 443.49805 670.80273 L 460.71875 700.85938 L 350.6875 700.33008 L 350.6875 820.7793 L 322.57031 800.16602 L 294.43945 821.25977 L 295.84961 700.33008 L 181.95703 698.92383 L 201.64258 670.80273 L 180.54688 642.67969 L 294.43945 642.67969 L 295.84961 493.62695 L 183.35352 493.62695 L 201.64258 464.09961 L 181.95703 437.38281 L 294.43945 437.38281 L 294.37305 329.33203 L 322.57031 351.60742 L 351.07031 329.23633 z M 233.95312 511.62891 L 250.82422 539.75 L 279.33008 539.75 L 258.69727 565.25 L 278.94922 589.24805 L 250.44531 589.62305 L 233.57227 618.12109 L 218.20898 589.99805 L 188.95898 589.62305 L 208.44922 565.25 L 188.57812 539.75 L 217.44727 540.12695 L 233.95312 511.62891 z M 409.66211 536.91406 C 438.93705 536.98006 457.41128 554.49123 463.39648 585.57812 C 428.61477 559.46884 392.78432 558.2257 355.81836 585.73633 C 361.56349 551.70837 380.64719 537.1694 409.66211 536.91406 z "
       transform="translate(54.666659,65.182243)"
       id="path79" />
    <rect
       class="fil2"
       x="59.180603"
       y="69.071358"
       width="639.10974"
       height="180.47136"
       id="rect87"
       style="fill:#ff0000;fill-opacity:1;fill-rule:evenodd;stroke:#ff0000;stroke-width:7.77822924;stroke-miterlimit:4;stroke-dasharray:none;stroke-opacity:1"
       inkscape:export-filename="c:\Documents and Settings\Administrator\Desktop\!-- temp\zochar-logo_bw.png"
       inkscape:export-xdpi="90"
       inkscape:export-ydpi="90" />
    <path
       class="fil2"
       d="M 58.569614,477.88038 C 167.6827,439.88398 223.77273,399.48104 296.42479,307.24866 l 13.54005,82.82706 c 54.14607,-32.39947 69.80613,-53.15019 84.30602,-135.58154 127.73349,32.26972 266.56575,109.01287 303.85036,224.74434 l 0.0925,-365.17117 -638.93874,-0.0527 -0.705406,363.86572 z"
       id="path89"
       style="fill:#ff0000;fill-opacity:1;fill-rule:evenodd;stroke:#ff0000;stroke-width:7.78464556;stroke-linecap:butt;stroke-linejoin:miter;stroke-miterlimit:10;stroke-dasharray:none;stroke-opacity:1"
       inkscape:export-filename="c:\Documents and Settings\Administrator\Desktop\!-- temp\zochar-logo_bw.png"
       inkscape:export-xdpi="90"
       inkscape:export-ydpi="90"
       inkscape:connector-curvature="0" />
    <rect
       style="opacity:1;fill:#ff0000;fill-opacity:1;fill-rule:evenodd;stroke:#ff0000;stroke-width:8.34638882;stroke-linecap:round;stroke-linejoin:miter;stroke-miterlimit:4;stroke-dasharray:none;stroke-dashoffset:0;stroke-opacity:1"
       id="rect3282"
       width="622.9549"
       height="30.91477"
       x="67.245728"
       y="101.08566"
       inkscape:export-filename="c:\Documents and Settings\Administrator\Desktop\!-- temp\zochar-logo_bw.png"
       inkscape:export-xdpi="90"
       inkscape:export-ydpi="90" />
  </g>
</svg>
